<?xml version="1.0" standalone="yes"?>
<svg xmlns="http://www.w3.org/2000/svg" width="819" height="460">
<path style="fill:#ffffff; stroke:none;" d="M0 0L0 131L0 460L489 460L548 460L559 460L579 460L584 460L607 460L613 460L629 460L642 460L643 460L662 460L670 460L671 460L703 460L707 460L717 460L740 460L746 460L747 460L755 460L759 460L767 460L772 460L779 460L783 460L785 460L786 460L794 460L796 460L800 460L803 460L805 460L809 460L819 460L819 400L819 399L819 389L819 361L819 360L819 342L819 324L819 321L819 320L819 291L819 257L819 0L813 0L808 0L804 0L798 0L782 0L778 0L772 0L764 0L759 0L756 0L752 0L736 0L734 0L733 0L728 0L724 0L714 0L709 0L701 0L697 0L691 0L675 0L628 0L578 0L553 0L552 0L548 0L546 0L512 0L404 0L113 0L0 0z"/>
<path style="fill:#000000; stroke:none;" d="M365 334L366 335L369.056 335L370 335L371 335L373 334.889L373.972 334.667L375.667 333.722L376.639 332.472L377 331L378.5 332.222L380.056 333.194L381 333.722L382 334.167L384 334.972L386 335.583L387 335.778L388 335.917L390 336L391 336L392 336L394 336L397 336L398 336L399 336L401 335.917L402 335.778L403 335.583L404 335.306L406 334.611L408 333.722L409 333.167L410 332.611L411 331.972L413 330.583L415 328.917L415.972 327.972L416.917 327L418.528 325L419.806 323L420.361 322L420.944 321L421.944 319L422.361 318L423.167 316L423.528 315L423.778 314L424 313L424.389 311L424.778 309.056L424.917 308.5L425 307L425.722 308.5L425.75 309.056L425.944 310.056L426.083 312L426.417 314L426.694 315L427.333 317L428.028 319L428.417 320L429.417 322L430.028 323L431.389 325L432.139 325.972L432.861 326.917L434.389 328.611L435.222 329.389L437.028 331L439 332.528L441 333.75L442 334.222L443 334.75L444 335.167L445 335.611L447 336.306L448 336.583L450 336.917L452 337L453 337L454 337L457 337L459 337L460 337L462 336.917L464 336.583L466 335.972L467 335.611L469 334.722L470 334.167L471.944 333.056L472.5 332.694L474 332L474.361 333.472L475.333 334.722L477.028 335.667L478 335.889L480 336L481 336L481.944 336L485 336L486 335L486 310L486 302L486 299L486 298L485.917 296L485.778 295L485.389 293L485.083 291L485.028 290L485 288L485 287L485 285L485 276L482.944 275.417L481.944 275.222L481 275.083L479 275L478.056 275L477.056 275L475 275L474.417 277L474.222 278L474.083 278.5L474 280L472.5 278.944L471.944 278.611L470 277.389L469 276.833L468 276.278L467 275.833L466 275.389L464 274.694L463 274.389L462 274.139L460 273.639L459 273.389L457 273.111L456 273.111L454 273.389L453 273.611L452 273.806L450 274.194L448 274.694L446 275.389L445 275.833L444 276.25L442 277.25L441 277.833L439 278.944L438 279.472L436.111 280.611L435.306 281.306L434 283.028L433.417 284L432.139 286L431.444 287L430.25 289L429.778 290L429.25 291L428.833 292L427.944 294L427.472 295L426.611 297L426.306 298L426.111 299L426.028 300L426 301.944L426 304L425.278 302.5L425.25 301.944L425.028 300.944L424.917 300L424.389 298L423.528 296L422.694 294L421.972 292L421.611 291L421.167 290L420.722 289L420.167 288L419.611 287L418.306 285L417.583 284L416.778 283L414.972 281.028L414 280.083L412 278.417L411 277.694L409 276.389L408 275.833L407 275.278L405 274.389L403 273.694L402 273.417L400 273.083L398 273L397 273L395 273L393 273L392 273L390 273.083L388 273.472L387 273.833L385 274.639L384 275.056L382 276.083L380 277.417L379 278.222L378.056 279.028L376.5 280.5L375 282L375 270L375 267L375 266L375.028 264L375.083 263L375.389 261L375.639 260L375.861 259L376.139 258L376.361 257L376.611 256L376.917 254L377 252L377 251L376.889 249L376.278 247.111L375.667 246.333L374.889 245.722L373.972 245.333L373 245.111L371 245L369 245.111L368.028 245.333L367.111 245.722L366.333 246.333L365.722 247.111L365.333 248.028L365.028 250L365 252L365 254L365.083 256L365.222 257L365.611 259L365.917 261L365.972 262L366 263L366 265L366 271L366 290L366 297L366 299L366 300L365.917 302L365.611 304L365.389 305L365.083 307L365.028 308L365 310L365 311L365 317L365 334M196 248L195 249L195 287L195 300L195 303L195 304L195.028 306L195.083 307L195.389 309L195.611 310L195.917 312L195.972 313L196 315L196 317L196 325L196 327L196 328L196.028 329L196.056 329.944L196.25 330.944L196.278 331.5L197 333L198.5 332.917L199 332.778L200 332.583L202 332L202 317L202 314L202 312L202.028 310L202.083 309L202.389 307L202.611 306L202.917 304L202.972 303L203 301L203 299L203 298L203.083 296L203.25 295L203.472 294L203.861 293L204.278 292L205.472 290L207.083 288L208.028 287.028L209 286.083L211 284.472L213 283.278L214 282.861L215 282.472L216 282.25L217 282.083L219 282L220 282L222 282.083L223 282.25L224 282.472L225 282.861L226 283.278L228 284.472L229 285.25L230 286.083L231.917 288L233.528 289.972L234.778 291.667L235.417 292.278L235.778 292.639L237 293L237.028 295.056L237.083 296.056L237.389 298L237.611 299L237.917 301L237.972 302L238 304L238 305L238 307L238 316L238 325L238 327L238 328L238.028 329L238.056 329.944L238.25 330.944L238.278 331.5L239 333L242 333L243 332L243 302L243 300L243 299L243 298L242.917 296L242.611 294L242.389 293L242.222 292L241.944 290L241.75 289L241.528 288L241.139 287L240.722 286L239.528 284L238.75 283L236.972 281.028L235 279.25L234 278.472L232 277.278L230 276.389L229 276.028L227 275.417L226 275.222L225 275.083L223 275L222 275L221 275L219 275L218 275L216 275.083L215 275.222L214 275.417L212 276.028L211 276.417L209 277.472L208 278.167L206.111 279.639L205.333 280.333L204.722 281.167L204.361 281.583L204 283L203.278 281.5L203.25 280.944L203.056 279.944L203.028 279L203 277L203 275L203 271L203 260L203 257L203 256L202.972 254L202.917 253L202.611 251.056L202.25 249.5L202 248L196 248z"/>
<path style="fill:#ff7f27; stroke:none;" d="M451 249L451.25 250.5L451.417 251.056L451.694 252.056L452.333 254L453.333 257L456 265L457 268L457.333 269L458.111 270.889L458.639 271.694L459.306 272.361L461.028 273.361L462 273.806L464 274.611L466 275.389L468 276.278L469 276.833L470.944 277.944L471.5 278.306L473 279L472.917 277.5L472.778 276.944L472.583 275.944L472 274L471.667 273L471.333 272L470.333 269L466.667 258L465.667 255L465.333 254L464.694 252.056L464.417 251.056L464.25 250.5L464 249L451 249M469 249L469.25 250.5L469.417 251.056L469.694 252.056L470.333 254L471.333 257L474.667 267L475.667 270L476.306 271.944L476.583 272.944L476.75 273.5L477 275L479.056 274.444L480.056 274.333L482 274.75L482.972 275.333L483.889 276.111L485.278 278L485.667 279L485.972 281L486 282L486 284L486 285L486 287L486 294L493 294L492.917 292.5L492.528 290.944L492.167 290L491.389 288L490.611 286L490.167 285L489.75 284L489.222 283L488.278 281L487.972 280L487.806 279L488.417 277.028L489.139 276.111L490.028 275.333L491 274.722L493 274.194L494 274.278L494.972 274.5L496.75 275.5L497.528 276.25L498.75 278.028L499.222 279L499.75 280L500.167 281L501 283L501.389 284L502.194 286L502.611 287L503.389 289L504.222 290.944L504.778 291.944L505 292.5L506 294L525 294L525.972 292.5L526.167 291.944L526.639 290.944L527.389 289L528.194 287L528.611 286L529.389 284L529.806 283L530.611 281L531.417 279L531.917 278.028L532.5 277.083L534.083 275.5L535.028 274.944L536 274.5L538 274.167L539.944 274.417L542 275L541.722 273.5L541.528 272.944L540.806 271L540.389 270L539.667 268L539 266L538 263L536.667 259L536.333 258L535.667 256L535.333 255L534.667 253L534.361 252.056L533.972 251.056L533.806 250.5L533 249L469 249M427 251L427.444 252.5L427.667 253.056L428 254.056L428.333 255L429 257L430.667 262L431.667 265L432 266L432.611 268L433.139 270L433.389 271L433.694 272L434 273L434.333 274L435 276L435.306 276.944L435.583 277.944L435.75 278.5L436 280L437.5 279.667L438.056 279.361L439.056 278.889L440 278.306L442 277.083L444 276.056L445 275.639L447 274.806L448 274.389L449.944 273.694L451.5 273.25L453 273L452.917 271.5L452.778 270.944L452.583 269.944L452.306 269L452 268L451.333 266L450.667 264L449.333 260L448.667 258L448 256L447.694 255L447.417 254.056L447.222 253.056L447.083 252.5L447 251L446 250L437 250L435 250L433 250.028L432 250.083L430.056 250.389L428.5 250.75L427 251M376 256L376 266L376 268L376 269L375.972 271L375.917 272L375.611 274L375.389 275L375.083 277L375.028 278L375 279.944L375 282L376.083 281.222L376.472 280.722L377.278 279.972L379.028 278.389L381 276.861L382 276.167L383 275.472L385 274.417L387 273.667L388 273.333L390 272.694L391 272.417L393 272.083L395 272.028L396 272.083L397 272.222L399 272.611L401 273L402 273.222L403 273.472L405 274.25L406 274.778L408 275.833L409 276.389L411 277.694L412 278.417L414 280.083L415.917 282L417.583 284L418.306 285L419.611 287L420.167 288L420.722 289L421.167 290L421.611 291L422.389 293L423.194 294.944L423.5 295.5L424 297L427 297L427.444 295.5L427.667 294.944L428.389 293L429.25 291L429.778 290L430.25 289L431.444 287L432.139 286L433.306 284L433.806 282L433.75 281L433.583 280L433 278L432.333 276L431 272L429.667 268L429 266L428.694 265L428.389 264L427.861 262L427.611 261L427 259L426.667 258L426 256L425.361 254.056L424.972 253.056L424.806 252.5L424 251L421.944 251L420.944 251L419 251.028L418 251.083L416 251.389L415 251.611L413 251.917L412 251.972L410 252L408 252.028L407 252.083L405 252.389L404 252.611L402 252.917L401 252.972L399 253.028L398 253.083L396 253.389L395 253.611L393 253.917L392 253.972L390 254.028L389 254.083L387 254.389L385 254.778L384 254.917L382 255.083L381 255.222L379.056 255.611L378.056 255.778L377.5 255.917L376 256M283 276L283.778 277L284.306 277.222L285.111 277.806L286.028 278.222L287 278.778L288 279.25L290 280.472L291 281.25L292 282.083L294 284L295.917 286L296.75 287L297.528 288L298.75 290L299.222 291L299.778 292L300.222 293L300.75 294L301.139 294.944L301.722 296.5L302 298L302.806 297.222L303 296.694L303.417 295.889L304.25 294L305.222 292L305.778 291L306.25 290L307.472 288L308.25 287L309.083 286L311 284L312 283L314 281.083L315 280.25L316 279.472L318 278.25L319 277.778L320 277.25L321 276.833L322 276.389L324 275.694L325 275.417L327 275.083L329 275L330 275L332 275.028L334 275.222L335 275.417L337 276L338 276.333L339 276.667L341 277.417L343 278.417L345 279.694L346 280.417L348 282.083L348.972 283.028L349.917 284L351.583 286L352.306 287L353.611 289L354.167 290L354.722 291L355.167 292L355.972 294L356.667 296L357.306 298L357.583 299L357.917 301L357.917 303L357.778 303.944L357.583 304.944L357 307L358.5 306.75L360.056 306.389L361.944 306.083L364 306L365 305L365 258L362.944 258.028L361.944 258.083L360 258.389L359 258.611L357 258.944L356 259.056L354 259.389L353 259.611L352 259.806L350 260.194L349 260.389L348 260.611L346 260.944L345 261.056L343 261.389L341 261.806L339 262.194L338 262.389L337 262.639L336 262.861L335 263.139L333 263.611L332 263.806L330 264.194L329 264.389L327 264.861L326 265.139L325 265.361L324 265.611L323 265.806L321 266.194L320 266.389L318 266.861L317 267.139L316 267.361L314 267.861L313 268.139L312 268.361L311 268.639L310 268.861L308 269.389L307 269.694L305 270.306L304 270.611L302 271.139L301 271.361L299 271.861L298 272.139L297 272.361L296 272.639L295 272.861L293 273.389L292 273.694L291 274L290 274.333L288 275L286.056 275.583L285.056 275.778L284.5 275.917L283 276z"/>
<path style="fill:#2e1202; stroke:none;" d="M365 258L365 305L365.722 304.222L365.75 303.694L365.944 302.889L365.972 301.972L366 300L366 298L366 294L366 269L366 265L366 263L365.972 261.028L365.944 260.111L365.75 259.306L365.722 258.778L365 258z"/>
<path style="fill:#4b2105; stroke:none;" d="M375.333 260.667L375.333 261.333L375.667 261.333L375.667 260.667L375.333 260.667z"/>
<path style="fill:#8c4310; stroke:none;" d="M375 262L375 266L375.722 265.222L375.722 264.722L375.889 264L375.722 262.778L375 262z"/>
<path style="fill:#b35718; stroke:none;" d="M375 266L375 270L375.722 269.222L375.722 268.722L375.889 268L375.722 266.778L375 266z"/>
<path style="fill:#d2671e; stroke:none;" d="M375 270L375 275L375.722 274.222L375.75 273.694L375.917 272.917L375.75 271.306L375.722 270.778L375 270z"/>
<path style="fill:#b45818; stroke:none;" d="M390.667 272.333L390.667 272.667L391.333 272.667L391 272.333L390.667 272.333z"/>
<path style="fill:#87400f; stroke:none;" d="M392 272L392.778 272.722L393.306 272.75L394.111 272.944L395.028 272.972L395.944 273L396.944 273L399 273L398.222 272.278L397.694 272.25L396.889 272.056L395.972 272.028L395.056 272L394.056 272L392 272z"/>
<path style="fill:#944712; stroke:none;" d="M387 273L388 274L387 273z"/>
<path style="fill:#c25f1b; stroke:none;" d="M402.667 273.333L402.667 273.667L403.333 273.667L403 273.333L402.667 273.333z"/>
<path style="fill:#c9631c; stroke:none;" d="M450.667 273.333L451 273.667L451.333 273.667L451 273.333L450.667 273.333z"/>
<path style="fill:#9f4d14; stroke:none;" d="M452.667 273.333L452.667 273.667L453.333 273.667L453 273.333L452.667 273.333z"/>
<path style="fill:#c8621c; stroke:none;" d="M459 273L459.722 273.722L460.25 273.75L462 274L461.278 273.278L460.75 273.25L459 273z"/>
<path style="fill:#b65919; stroke:none;" d="M384 274L385 275L384 274z"/>
<path style="fill:#512406; stroke:none;" d="M385 274L386 275L385 274z"/>
<path style="fill:#954812; stroke:none;" d="M405 274L406 275L405 274z"/>
<path style="fill:#78380c; stroke:none;" d="M447.667 274.333L447.667 274.667L448.333 274.667L448 274.333L447.667 274.333z"/>
<path style="fill:#7e3b0e; stroke:none;" d="M463 274L464 275L463 274z"/>
<path style="fill:#ac5317; stroke:none;" d="M478 274L478.778 274.722L479.306 274.75L480.056 274.944L480.972 274.972L483 275L482.222 274.278L481.694 274.25L480.944 274.056L480.028 274.028L478 274z"/>
<path style="fill:#803c0e; stroke:none;" d="M490 274L490.778 274.722L491.306 274.75L492.111 274.944L492.972 274.972L493.944 275L496 275L495.222 274.278L494.694 274.25L493.889 274.056L493.028 274.028L492.056 274L490 274z"/>
<path style="fill:#813d0e; stroke:none;" d="M535 274L535.778 274.722L536.306 274.75L537.111 274.944L537.972 274.972L538.944 275L541 275L540.222 274.278L539.694 274.25L538.889 274.056L538.028 274.028L537.056 274L535 274z"/>
<path style="fill:#000000; stroke:none;" d="M186 314L186.056 315.5L186.139 316.056L186.194 318L185.833 320L185.417 321L184.278 322.917L183.583 323.778L182.778 324.583L180.972 325.917L179 326.917L177 327.583L175 327.917L174 327.972L172 327.972L171 327.917L169 327.583L168 327.278L167 326.889L165.083 325.694L163.417 323.972L162 322L160.583 320.111L158.972 318.722L157.5 318.111L156 318L155.278 319.5L155.25 320.056L155.056 321.056L155.028 322L155 323L155 323.944L155 327L156.5 327.75L157.056 328.222L159 329.556L161 330.75L162 331.222L164 332.139L165 332.528L167 332.917L169 333L170 333L172 333L174 333L175 333L176 333L178 332.917L179 332.778L180 332.583L182 331.972L184 331.083L185 330.5L186.972 328.917L187.917 327.972L189.528 326L190.722 324L191.528 322L191.75 321L191.917 320L192 318L191.917 316L191.556 314.111L191.139 313.306L190.972 312.778L190 312L191 311L191 309L189.5 307.528L187.944 306.194L187 305.472L185 304.194L184 303.639L183 303.056L181 302.083L179 301.333L177 300.667L174 299.667L173 299.333L171 298.611L170 298.167L169 297.722L167 296.528L166.028 295.75L164.25 293.972L163.028 292L162.667 290L162.806 289L163.139 288L163.639 287L165.111 285.083L167 283.5L169 282.5L171 282.083L172 282.028L174 282.028L176 282.25L177 282.5L179 283.5L181 285.083L181.972 286.028L183.694 287.944L184.222 288.5L185 290L187.056 289.917L188.944 289.556L190.5 288.972L192 288L191.75 285.944L191.5 284.944L190.5 283L188.917 281L187.972 280.028L186 278.25L185 277.5L183 276.417L181 275.694L180 275.417L178 275.083L176 275L175 275L174 275L172 275L170 275L169 275.028L168 275.083L166 275.417L164 276.083L162 277.083L161.028 277.722L159.222 279.222L158.417 280.083L157.083 282L156.083 284L155.417 286L155.222 287L155.083 288L155 290L155.028 292L155.083 293L155.5 295L155.917 296L156.417 297L157.694 298.917L159.222 300.611L160.083 301.361L162 302.833L163 303.556L165 304.722L166 305.167L168 305.972L169 306.333L171 307L174 308L175 308.333L177 309.028L178 309.417L180 310.5L182 311.972L182.944 312.694L183.944 313.278L184.5 313.639L186 314M266 334L274 334L276 334L277 334L279 333.917L281 333.583L283 333L284 332.667L285 332.333L287 331.583L289 330.583L291 329.306L292 328.583L294 326.917L294.944 326.028L295.944 325.056L298 323L297.889 321.333L298.333 319.778L298.806 318.917L299.222 317.972L299.75 317L300.167 316L300.611 315L301.306 313L301.583 312L301.917 310L302 308L302 307L302 305L302 303L302 302L302 301L301.917 299L301.778 298L301.583 297L301.306 296L300.611 294L300.167 293L299.75 292L298.75 290L298.139 289L297.528 288L295.917 286L294 284L292 282.083L290 280.472L289 279.861L288 279.25L286 278.167L285 277.611L283 276.417L282 275.917L281 275.5L279 275.083L277 275L276 275L273 275L271 275L270 275L268 275.083L266 275.389L265 275.639L263 276.167L262 276.444L260 277.278L259 277.833L258 278.389L256 279.694L255 280.417L254 281.222L252.028 283.028L251.111 284L249.694 286L248.861 288L248.556 289L247.75 291L247.25 292L246.389 294L245.694 296L245.417 297L245.083 299L245 301L245 302L245 304L245 306L245 307L245.028 309L245.083 310L245.417 312L245.694 313L246.389 315L246.833 316L247.778 318L248.25 319L249.472 321L250.222 322L251 322.972L252.611 324.778L253.389 325.611L255.083 327.139L256.028 327.833L257 328.556L259 329.75L260 330.222L261 330.75L262.972 331.639L263.889 332.028L264.694 332.583L265.222 332.833L266 334z"/>
<path style="fill:#b65919; stroke:none;" d="M324 275L324.722 275.722L325.25 275.75L327 276L326.278 275.278L325.75 275.25L324 275z"/>
<path style="fill:#582807; stroke:none;" d="M327 275L327.722 275.722L328.25 275.75L330 276L329.278 275.278L328.75 275.25L327 275z"/>
<path style="fill:#000000; stroke:none;" d="M350 321L348.5 321.111L346.944 321.639L345 322.694L343 323.972L342 324.583L340 325.583L338 326.306L337 326.583L336 326.778L335 326.917L333 327L332 327L331 327L330 327L328 326.917L326 326.583L324 325.917L322 324.917L320 323.667L318 322.306L317.028 321.583L316.083 320.806L314.389 319.194L313.611 318.389L312.806 317.611L311.278 315.917L310.639 314.972L310.111 314L309.333 312L308.694 310.056L308.417 309.056L308.25 308.5L308 307L336 307L346 307L348 307L349 307L351 306.972L352 306.917L353.944 306.611L355.5 306.25L357 306L357 302.944L357 301L357 300L356.917 298L356.778 297L356.583 296L356.306 295L355.611 293L355.167 292L354.75 291L353.75 289L353.139 288L352.528 287L350.917 285L349 283.028L348 282.083L347 281.222L346 280.417L344 279.028L343 278.417L341 277.417L340 277.028L338 276.417L337 276.222L336 276.083L334 275.917L332 275.694L331 275.611L330 275.611L329 275.694L327 275.917L325 276.083L323 276.417L321 277.028L320 277.389L318 278.278L316 279.444L315 280.167L313 281.639L312.028 282.389L310.222 284.083L308.694 286L308.028 287L307.389 288L306.833 289L306.25 290L305.778 291L305.25 292L304.389 294L303.694 296L303.417 297L303.222 298L303.083 299L303 301L303 302L303 303L303 305L303 307L303 308L303.083 310L303.417 312L303.694 313L304.389 315L304.806 316L305.556 318L305.833 319L306.167 320L306.944 322L307.5 323L309.083 325L311 326.917L313 328.583L314 329.306L316 330.583L318 331.583L319 331.972L321 332.667L322 333L324 333.583L325 333.778L326 333.917L328 334L329 334L330 334L332 334L334 334L335 334L336 334L338 333.917L339 333.778L340 333.583L341 333.306L343 332.611L344 332.167L346 331.222L348 330.139L348.972 329.528L349.889 328.75L350.667 327.917L351.583 326L351.528 324.056L351.139 323.056L350.972 322.5L350 321z"/>
<path style="fill:#5a2807; stroke:none;" d="M331 275L331.722 275.722L332.25 275.75L334 276L333.278 275.278L332.75 275.25L331 275z"/>
<path style="fill:#ba5b19; stroke:none;" d="M334.667 275.333L335 275.667L335.333 275.667L335 275.333L334.667 275.333z"/>
<path style="fill:#bc5c1a; stroke:none;" d="M382 275L383 276L382 275z"/>
<path style="fill:#823e0e; stroke:none;" d="M407 275L408 276L407 275z"/>
<path style="fill:#6e330a; stroke:none;" d="M445 275L446 276L445 275z"/>
<path style="fill:#894110; stroke:none;" d="M466 275L467 276L466 275z"/>
<path style="fill:#562706; stroke:none;" d="M483 275L484 276L483 275z"/>
<path style="fill:#000000; stroke:none;" d="M489 275L488 276L488 277.5L488.083 279.056L488.472 281L489.25 283L489.75 284L490.611 286L491.389 288L492.194 290L492.583 290.972L492.889 291.917L493.222 293.611L493.25 294.389L493.528 296.083L494.25 298L494.75 299L495.611 301L496.389 303L497.194 305L497.611 306L498.389 308L498.806 309L499.611 311L500.389 313L501.25 315L501.75 316L502.611 318L503.389 320L504.194 322L504.611 323L505.389 325L506.194 327L506.611 328L506.972 329L507.556 331L507.694 332L507.5 334L506.75 336L506.25 337L505.389 339L505 340L504.611 341L503.806 343L503.389 344L502.611 346L501.75 348L500.861 350L500.472 351L500.083 353L500 354.944L500 355.944L500 358L501 359L504.056 359L506 359L508 358.889L509 358.667L509.972 358.278L510.889 357.667L512.361 355.972L512.917 355L513.806 353L514.194 352L514.611 351L515.389 349L516.25 347L516.75 346L517.611 344L518.389 342L519.194 340L519.611 339L520.389 337L520.806 336L521.611 334L522.389 332L523.25 330L523.75 329L524.611 327L525.389 325L525.806 324L526.611 322L527.389 320L528.25 318L528.75 317L529.611 315L530.389 313L531.194 311L531.611 310L532.389 308L532.806 307L533.611 305L534.389 303L535.25 301L536.167 299L536.611 298L537.25 296L537.639 294L537.778 293L538.333 291L538.778 290L539.611 288L540.389 286L541.194 284L541.639 283L542.056 282L542.528 281L543.389 279.056L543.889 277.5L544 276L542.5 275.278L541.944 275.25L540.944 275.056L539 275L537 275.028L536 275.111L534.083 275.722L533.25 276.333L532.5 277.111L531.417 279L530.611 281L529.806 283L529.389 284L528.611 286L528.194 287L527.389 289L527 290L526.111 291.917L525.583 292.778L524.417 294.389L523.417 296.083L522.611 298L521.806 300L521.389 301L520.611 303L519.806 305L519.389 306L518.611 308L517.806 310L517.389 311L516.694 312.944L516.25 314.5L516 316L515.028 314.5L514.833 313.944L514.361 312.944L513.611 311L512.806 309L512.389 308L511.611 306L510.75 304L510.25 303L509.389 301L508.611 299L507.806 297.028L507.361 296.083L506.944 295.222L505.944 293.611L505.361 292.778L504.278 290.972L503.833 290L503.389 289L502.611 287L501.75 285L501.25 284L500.389 282L499.611 280L498.778 278.056L498.222 277.056L498 276.5L497 275L489 275z"/>
<path style="fill:#b45818; stroke:none;" d="M497 275L498 276L497 275z"/>
<path style="fill:#9d4c14; stroke:none;" d="M533 275L534 276L533 275z"/>
<path style="fill:#bf5d1a; stroke:none;" d="M321 276L322 277L321 276z"/>
<path style="fill:#77380c; stroke:none;" d="M322 276L323 277L322 276z"/>
<path style="fill:#8a4210; stroke:none;" d="M338 276L339 277L338 276z"/>
<path style="fill:#683009; stroke:none;" d="M381 276L382 277L381 276z"/>
<path style="fill:#9a4a13; stroke:none;" d="M409 276L410 277L409 276z"/>
<path style="fill:#be5d1a; stroke:none;" d="M442 276L443 277L442 276z"/>
<path style="fill:#471e04; stroke:none;" d="M443 276L444 277L443 276z"/>
<path style="fill:#73360b; stroke:none;" d="M468 276L469 277L468 276z"/>
<path style="fill:#a04d14; stroke:none;" d="M532 276L533 277L532 276z"/>
<path style="fill:#532506; stroke:none;" d="M542 276L543 277L542 276z"/>
<path style="fill:#70340b; stroke:none;" d="M284 277L285 278L284 277z"/>
<path style="fill:#964812; stroke:none;" d="M319 277L320 278L319 277z"/>
<path style="fill:#b15618; stroke:none;" d="M341 277L342 278L341 277z"/>
<path style="fill:#4b2105; stroke:none;" d="M410 277L411 278L410 277z"/>
<path style="fill:#552606; stroke:none;" d="M441 277L442 278L441 277z"/>
<path style="fill:#8b4210; stroke:none;" d="M470 277L471 278L470 277z"/>
<path style="fill:#77380c; stroke:none;" d="M485 277L485 294L485.722 293.222L485.75 292.694L485.944 291.889L485.972 290.972L486 290L486 289L486 287L486 284L486 282L485.972 280.028L485.944 279.111L485.75 278.306L485.722 277.778L485 277z"/>
<path style="fill:#bc5c1a; stroke:none;" d="M487 277L487 280L487.694 279.25L487.694 278.194L487.694 277.75L487 277z"/>
<path style="fill:#632d08; stroke:none;" d="M498 277L499 278L498 277z"/>
<path style="fill:#5d2a07; stroke:none;" d="M286 278L287 279L286 278z"/>
<path style="fill:#954812; stroke:none;" d="M317 278L318 279L317 278z"/>
<path style="fill:#b45818; stroke:none;" d="M343 278L344 279L343 278z"/>
<path style="fill:#a95216; stroke:none;" d="M378 278L379 279L378 278z"/>
<path style="fill:#b05617; stroke:none;" d="M412 278L413 279L412 278z"/>
<path style="fill:#984913; stroke:none;" d="M439 278L440 279L439 278z"/>
<path style="fill:#4f2305; stroke:none;" d="M471 278L472 279L471 278z"/>
<path style="fill:#9b4b13; stroke:none;" d="M531 278L532 279L531 278z"/>
<path style="fill:#77380c; stroke:none;" d="M288 279L289 280L288 279z"/>
<path style="fill:#bc5c1a; stroke:none;" d="M315 279L316 280L315 279z"/>
<path style="fill:#602c08; stroke:none;" d="M344 279L345 280L344 279z"/>
<path style="fill:#9f4d14; stroke:none;" d="M377 279L378 280L377 279z"/>
<path style="fill:#8c4310; stroke:none;" d="M413 279L414 280L413 279z"/>
<path style="fill:#5d2a07; stroke:none;" d="M438 279L439 280L438 279z"/>
<path style="fill:#c05e1b; stroke:none;" d="M473 279L474 280L473 279z"/>
<path style="fill:#8b4210; stroke:none;" d="M499 279L500 280L499 279z"/>
<path style="fill:#ff7f27; stroke:none;" d="M543 279L542.556 280.5L542.333 281.056L541.611 283L541.194 284L540.806 285L540 287L539.194 289L538.833 290L538.472 290.944L538.083 292.5L538 294L539.5 294L541.056 294.083L542 294.222L543 294.389L544 294.583L545 294.667L546.889 294.25L548.25 292.889L548.556 291.972L548.556 291L548.278 290L547.778 289L546.611 287L546.111 286L545.333 284L544.667 282.028L544.361 281.111L543.972 280.306L543.806 279.778L543 279z"/>
<path style="fill:#b45818; stroke:none;" d="M290 280L291 281L290 280z"/>
<path style="fill:#78380c; stroke:none;" d="M314 280L315 281L314 280z"/>
<path style="fill:#b25718; stroke:none;" d="M346 280L347 281L346 280M376 280L377 281L376 280z"/>
<path style="fill:#823e0e; stroke:none;" d="M414 280L415 281L414 280z"/>
<path style="fill:#512406; stroke:none;" d="M542 280L543 281L542 280z"/>
<path style="fill:#6c320a; stroke:none;" d="M267 281L268 282L267 281z"/>
<path style="fill:#ce661d; stroke:none;" d="M268.667 281.333L269 281.667L269.333 281.667L269 281.333L268.667 281.333z"/>
<path style="fill:#ff7f27; stroke:none;" d="M270 281.389L268 281.806L266 282.222L265 282.5L264 282.917L262 284.028L261 284.694L260 285.417L258 287.083L256.083 289L254.472 291L253.861 292L252.778 294L251.861 296L251.472 297L251.083 299L251 301L251 302L251 304L251 306L251 307L251.083 309L251.417 311L252.028 313L252.833 315L253.278 316L254.472 318L255.25 319L256.083 320L258 321.917L259 322.778L261 324.306L263 325.583L265 326.528L267 327.139L268 327.361L269 327.611L271 327.917L273 327.972L274 327.917L276 327.611L277 327.389L279 327.056L280 326.944L282 326.528L283 326.139L284 325.722L286 324.528L288 322.917L289.972 321L291.75 319L292.528 318L293.75 316L294.222 315L295.139 313L295.528 312L295.917 310L296 308L296 307L296 306L296 304L296 302L296 301L295.917 299L295.528 297L295.139 296L294.222 294L293.139 292L292.528 291L290.917 289L289 287.083L288 286.222L287 285.417L285 284.083L283 283.083L281 282.417L280 282.194L278 281.806L276 281.389L275 281.222L274 281.083L272 281.083L270 281.389z"/>
<path style="fill:#d0661e; stroke:none;" d="M276 281L276.722 281.722L277.25 281.75L279 282L278.278 281.278L277.75 281.25L276 281z"/>
<path style="fill:#71340b; stroke:none;" d="M279 281L280 282L279 281z"/>
<path style="fill:#823e0e; stroke:none;" d="M291 281L292 282L291 281z"/>
<path style="fill:#492004; stroke:none;" d="M313 281L314 282L313 281z"/>
<path style="fill:#622d08; stroke:none;" d="M324 281L325 282L324 281z"/>
<path style="fill:#ce661d; stroke:none;" d="M325.667 281.333L326 281.667L326.333 281.667L326 281.333L325.667 281.333z"/>
<path style="fill:#ff7f27; stroke:none;" d="M309 301L351 301L350.972 299.5L350.917 298.944L350.611 297L350.361 296L350.111 295L349.389 293L348.889 292L347.583 290L346.778 289L344.972 287.028L344 286.083L342 284.472L341 283.861L340 283.278L338 282.472L336 282L335 281.806L333 281.389L332 281.222L331 281.083L329 281.083L327 281.389L326 281.611L325 281.806L323 282.278L321 283.111L319 284.333L317.083 285.694L315.389 287.222L314.639 288.083L313.139 290L312.389 291L311.111 293L310.611 294L309.889 296L309.639 297L309.389 297.944L309.222 298.944L309.083 299.5L309 301z"/>
<path style="fill:#c7611c; stroke:none;" d="M333 281L333.722 281.722L334.25 281.75L336 282L335.278 281.278L334.75 281.25L333 281z"/>
<path style="fill:#471e04; stroke:none;" d="M336 281L337 282L336 281z"/>
<path style="fill:#87400f; stroke:none;" d="M347 281L348 282L347 281z"/>
<path style="fill:#803c0e; stroke:none;" d="M415 281L416 282L415 281z"/>
<path style="fill:#a85116; stroke:none;" d="M488 281L489 282L488 281z"/>
<path style="fill:#af5517; stroke:none;" d="M500 281L501 282L500 281z"/>
<path style="fill:#662f09; stroke:none;" d="M530 281L531 282L530 281z"/>
<path style="fill:#ffffff; stroke:none;" d="M203 306L204.5 305.5L205.056 305.194L207 304.389L209 303.611L211 302.75L212 302.25L214 301.389L216 300.611L218 299.806L219 299.389L221 298.667L222 298.333L223 297.972L224 297.611L225 297.194L227 296.389L229 295.611L230 295.194L231 294.806L232.944 294L233.5 293.806L235 293L234.722 291.5L234.056 289.944L233.5 289L231.917 287.028L230.972 286.083L229 284.472L228 283.861L227 283.278L226 282.861L225 282.472L223 282.083L222 282.028L220 282L219 282L218 282L216 282.083L215 282.25L214 282.472L213 282.861L212 283.278L210 284.472L208.028 286.083L207.083 287.028L205.472 289L204.278 291L203.861 292L203.472 293L203.25 294L203.083 295L203 297L203 299L203 301L203 306z"/>
<path style="fill:#5a2807; stroke:none;" d="M264 282L265 283L264 282z"/>
<path style="fill:#bb5b1a; stroke:none;" d="M281 282L282 283L281 282z"/>
<path style="fill:#602c08; stroke:none;" d="M282 282L283 283L282 282M292 282L293 283L292 282z"/>
<path style="fill:#8c4310; stroke:none;" d="M338 282L339 283L338 282z"/>
<path style="fill:#76370c; stroke:none;" d="M348 282L349 283L348 282z"/>
<path style="fill:#984913; stroke:none;" d="M416 282L417 283L416 282z"/>
<path style="fill:#451d04; stroke:none;" d="M500 282L501 283L500 282z"/>
<path style="fill:#5d2a07; stroke:none;" d="M262 283L263 284L262 283z"/>
<path style="fill:#683009; stroke:none;" d="M284 283L285 284L284 283z"/>
<path style="fill:#4d2205; stroke:none;" d="M293 283L294 284L293 283z"/>
<path style="fill:#af5517; stroke:none;" d="M320 283L321 284L320 283z"/>
<path style="fill:#884110; stroke:none;" d="M340 283L341 284L340 283z"/>
<path style="fill:#6e330a; stroke:none;" d="M349 283L350 284L349 283z"/>
<path style="fill:#6c320a; stroke:none;" d="M389 283L390 284L389 283z"/>
<path style="fill:#ff7f27; stroke:none;" d="M376 303L378.056 302.972L379.056 302.917L381 302.611L382 302.389L384 302.083L386 301.917L387 301.778L389 301.389L391 301.083L393 300.917L394 300.778L396 300.389L398 300.083L400 299.917L401 299.778L403 299.389L405 299.083L406 299.028L408 298.972L408.944 298.944L409.944 298.75L410.5 298.722L412 298L411.917 296.5L411.5 294.944L410.583 293L409.972 292L409.306 291L408.583 290L406.917 288.083L405 286.472L404 285.861L403 285.278L402 284.861L401 284.444L400 284.167L398 283.639L397 283.389L395 283.083L393 283.028L392 283.083L390 283.472L388 284.278L387 284.833L386 285.389L384.028 286.694L383.083 287.417L382.222 288.222L381.417 289.083L380.694 290.028L379.389 292L378.833 293L377.861 295L377.444 296L377.167 297L376.639 299L376.222 300.944L376.083 301.5L376 303z"/>
<path style="fill:#bd5c1a; stroke:none;" d="M397 283L397.722 283.722L398.25 283.75L400 284L399.278 283.278L398.75 283.25L397 283z"/>
<path style="fill:#b65919; stroke:none;" d="M417 283L418 284L417 283z"/>
<path style="fill:#7f3c0e; stroke:none;" d="M489 283L490 284L489 283z"/>
<path style="fill:#9b4b13; stroke:none;" d="M529 283L530 284L529 283z"/>
<path style="fill:#944712; stroke:none;" d="M541 283L542 284L541 283z"/>
<path style="fill:#b45818; stroke:none;" d="M261 284L262 285L261 284z"/>
<path style="fill:#bd5c1a; stroke:none;" d="M285 284L286 285L285 284z"/>
<path style="fill:#4f2305; stroke:none;" d="M294 284L295 285L294 284z"/>
<path style="fill:#7e3b0e; stroke:none;" d="M318 284L319 285L318 284z"/>
<path style="fill:#471e04; stroke:none;" d="M342 284L343 285L342 284z"/>
<path style="fill:#843f0f; stroke:none;" d="M350 284L351 285L350 284z"/>
<path style="fill:#994913; stroke:none;" d="M387 284L388 285L387 284z"/>
<path style="fill:#af5517; stroke:none;" d="M401 284L402 285L401 284z"/>
<path style="fill:#4b2105; stroke:none;" d="M433 284L434 285L433 284z"/>
<path style="fill:#6a310a; stroke:none;" d="M450 284L451 285L450 284z"/>
<path style="fill:#ff7f27; stroke:none;" d="M441 296L442.5 295.972L444.056 295.778L446 295.389L448 295.083L449 295.028L451 295L453 295L461 295L460.556 293.5L460.333 292.944L460 291.944L459.667 291L459 289L458.361 287.056L457.972 286.056L457.806 285.5L457 284L454.944 284L453 284.083L452 284.25L451 284.472L449 285.25L448 285.778L447 286.25L445.028 287.472L444.083 288.25L442.5 290.028L441.5 292L441.25 292.944L441.028 294.5L441 296z"/>
<path style="fill:#7a3a0d; stroke:none;" d="M501 284L502 285L501 284z"/>
<path style="fill:#622d08; stroke:none;" d="M259 285L260 286L259 285z"/>
<path style="fill:#71340b; stroke:none;" d="M287 285L288 286L287 285z"/>
<path style="fill:#632d08; stroke:none;" d="M295 285L296 286L295 285z"/>
<path style="fill:#b45818; stroke:none;" d="M317 285L318 286L317 285z"/>
<path style="fill:#7f3c0e; stroke:none;" d="M343 285L344 286L343 285z"/>
<path style="fill:#a24e15; stroke:none;" d="M351 285L352 286L351 285z"/>
<path style="fill:#79390d; stroke:none;" d="M385 285L386 286L385 285z"/>
<path style="fill:#9b4a13; stroke:none;" d="M403 285L404 286L403 285z"/>
<path style="fill:#5d2a07; stroke:none;" d="M418 285L419 286L418 285z"/>
<path style="fill:#7d3b0d; stroke:none;" d="M432 285L433 286L432 285z"/>
<path style="fill:#9f4d14; stroke:none;" d="M448 285L449 286L448 285z"/>
<path style="fill:#ffffff; stroke:none;" d="M458 285L458.083 286.5L458.222 287.056L458.417 288.056L459 290L459.333 291L460.028 292.944L460.194 293.5L461 295L453 295L450 295L449 295L447 295.083L445 295.361L444.028 295.5L442.278 295.306L441.083 294.667L440 294L439.556 295.5L439.333 296.056L438.694 298L438.417 299L438.222 300L438.083 301L438 303L438 304L438 306L438.028 308L438.083 309L438.417 311L439.028 313L439.389 314L439.833 315L440.861 317L441.472 318L443.083 319.972L444.028 320.917L445 321.75L446 322.528L447 323.139L448 323.722L450 324.556L451 324.833L453 325.361L454 325.611L456 325.833L458 325.611L459 325.361L460 325.139L462 324.556L463 324.139L464 323.722L465 323.139L466 322.528L467.917 320.917L469.583 319L470.917 317L471.444 316L472.306 314L473 312L473.583 310L473.778 309L473.917 308L474 306L473.972 304L473.917 303L473.611 301L473.361 300L472.833 298L472.583 297.056L472.139 296.056L471.972 295.5L471 294L466 294L465.556 292.5L465.333 291.944L465 290.944L464.306 289.028L463.889 288.083L462.694 286.5L461.028 285.5L460.056 285.25L458 285z"/>
<path style="fill:#924611; stroke:none;" d="M463 285L464 286L463 285z"/>
<path style="fill:#492004; stroke:none;" d="M490 285L491 286L490 285z"/>
<path style="fill:#662f09; stroke:none;" d="M540 285L541 286L540 285z"/>
<path style="fill:#8b4210; stroke:none;" d="M258 286L259 287L258 286z"/>
<path style="fill:#9b4a13; stroke:none;" d="M288 286L289 287L288 286z"/>
<path style="fill:#8a4210; stroke:none;" d="M296 286L297 287L296 286z"/>
<path style="fill:#652e09; stroke:none;" d="M308 286L309 287L308 286z"/>
<path style="fill:#984913; stroke:none;" d="M344 286L345 287L344 286z"/>
<path style="fill:#b65919; stroke:none;" d="M384 286L385 287L384 286z"/>
<path style="fill:#a75116; stroke:none;" d="M419 286L420 287L419 286z"/>
<path style="fill:#bc5c1a; stroke:none;" d="M431 286L432 287L431 286z"/>
<path style="fill:#853f0f; stroke:none;" d="M446 286L447 287L446 286z"/>
<path style="fill:#ff7f27; stroke:none;" d="M463 286L463.444 287.5L463.667 288.056L464.333 290L464.639 290.944L465.028 291.944L465.194 292.5L466 294L471 294L470.667 292.5L469.889 290.972L468.583 289.222L467.778 288.417L466.028 287.111L464.5 286.333L463 286z"/>
<path style="fill:#71340b; stroke:none;" d="M465 286L466 287L465 286z"/>
<path style="fill:#a34f15; stroke:none;" d="M502 286L503 287L502 286z"/>
<path style="fill:#683009; stroke:none;" d="M528 286L529 287L528 286z"/>
<path style="fill:#9a4a13; stroke:none;" d="M257 287L258 288L257 287z"/>
<path style="fill:#a95216; stroke:none;" d="M289 287L290 288L289 287z"/>
<path style="fill:#bc5c1a; stroke:none;" d="M297 287L298 288L297 287z"/>
<path style="fill:#a04d14; stroke:none;" d="M307 287L308 288L307 287z"/>
<path style="fill:#994913; stroke:none;" d="M345 287L346 288L345 287z"/>
<path style="fill:#562706; stroke:none;" d="M406 287L407 288L406 287z"/>
<path style="fill:#ad5417; stroke:none;" d="M466 287L467 288L466 287z"/>
<path style="fill:#ff7f27; stroke:none;" d="M242 290L242.25 291.5L242.639 293.056L242.861 294L243.139 294.944L243.389 295.944L244 298L244.806 297.222L245 296.694L245.417 295.889L246.25 294L247.222 292L247.75 291.056L248.167 290.056L248.5 289.5L249 288L247.5 288.25L246.944 288.417L245.944 288.694L244.056 289.333L243.5 289.556L242 290z"/>
<path style="fill:#914511; stroke:none;" d="M256 288L257 289L256 288z"/>
<path style="fill:#a24e15; stroke:none;" d="M290 288L291 289L290 288z"/>
<path style="fill:#bf5d1a; stroke:none;" d="M314 288L315 289L314 288z"/>
<path style="fill:#86400f; stroke:none;" d="M346 288L347 289L346 288z"/>
<path style="fill:#9d4c14; stroke:none;" d="M353 288L354 289L353 288z"/>
<path style="fill:#532506; stroke:none;" d="M407 288L408 289L407 288z"/>
<path style="fill:#8e4411; stroke:none;" d="M420 288L421 289L420 288z"/>
<path style="fill:#904511; stroke:none;" d="M430 288L431 289L430 288z"/>
<path style="fill:#8c4310; stroke:none;" d="M491 288L492 289L491 288z"/>
<path style="fill:#9b4b13; stroke:none;" d="M527 288L528 289L527 288z"/>
<path style="fill:#a34f15; stroke:none;" d="M539 288L540 289L539 288z"/>
<path style="fill:#823e0e; stroke:none;" d="M248 289L249 290L248 289z"/>
<path style="fill:#78380c; stroke:none;" d="M255 289L256 290L255 289z"/>
<path style="fill:#8b4210; stroke:none;" d="M291 289L292 290L291 289z"/>
<path style="fill:#853f0f; stroke:none;" d="M298 289L299 290L298 289z"/>
<path style="fill:#6a310a; stroke:none;" d="M306 289L307 290L306 289z"/>
<path style="fill:#ad5417; stroke:none;" d="M313 289L314 290L313 289z"/>
<path style="fill:#5d2a07; stroke:none;" d="M347 289L348 290L347 289z"/>
<path style="fill:#662f09; stroke:none;" d="M503 289L504 290L503 289z"/>
<path style="fill:#552606; stroke:none;" d="M292 290L293 291L292 290z"/>
<path style="fill:#6c320a; stroke:none;" d="M312 290L313 291L312 290z"/>
<path style="fill:#87400f; stroke:none;" d="M354 290L355 291L354 290z"/>
<path style="fill:#b45818; stroke:none;" d="M380 290L381 291L380 290z"/>
<path style="fill:#9d4c14; stroke:none;" d="M421 290L422 291L421 290z"/>
<path style="fill:#833e0f; stroke:none;" d="M429 290L430 291L429 290z"/>
<path style="fill:#b95a19; stroke:none;" d="M469 290L470 291L469 290z"/>
<path style="fill:#5a2807; stroke:none;" d="M492 290L493 291L492 290z"/>
<path style="fill:#79390d; stroke:none;" d="M538 290L539 291L538 290z"/>
<path style="fill:#70340b; stroke:none;" d="M247 291L248 292L247 291z"/>
<path style="fill:#72350b; stroke:none;" d="M299 291L300 292L299 291z"/>
<path style="fill:#5a2807; stroke:none;" d="M305 291L306 292L305 291z"/>
<path style="fill:#a34f15; stroke:none;" d="M348 291L349 292L348 291z"/>
<path style="fill:#76370c; stroke:none;" d="M379 291L380 292L379 291z"/>
<path style="fill:#994913; stroke:none;" d="M409 291L410 292L409 291z"/>
<path style="fill:#b95a19; stroke:none;" d="M441 291L442 292L441 291z"/>
<path style="fill:#8b4210; stroke:none;" d="M470 291L471 292L470 291z"/>
<path style="fill:#944712; stroke:none;" d="M504 291L505 292L504 291z"/>
<path style="fill:#683009; stroke:none;" d="M526 291L527 292L526 291z"/>
<path style="fill:#87400f; stroke:none;" d="M242.333 292.667L242.333 293L242.667 293.333L242.667 293L242.333 292.667z"/>
<path style="fill:#833e0f; stroke:none;" d="M253 292L254 293L253 292z"/>
<path style="fill:#9b4a13; stroke:none;" d="M293 292L294 293L293 292z"/>
<path style="fill:#a95216; stroke:none;" d="M311 292L312 293L311 292z"/>
<path style="fill:#9b4b13; stroke:none;" d="M355 292L356 293L355 292z"/>
<path style="fill:#9f4d14; stroke:none;" d="M428 292L429 293L428 292z"/>
<path style="fill:#76370c; stroke:none;" d="M440 292L441 293L440 292z"/>
<path style="fill:#471e04; stroke:none;" d="M537 292L538 293L537 292z"/>
<path style="fill:#ff7f27; stroke:none;" d="M203 306L203 322L203 325L203 326L202.889 328L202.667 329L202.278 329.972L200.889 331.667L199.972 332.278L199.056 332.667L197.5 332.972L196 333L195 332L195 310L193 310.25L192.444 310.278L191 311L191.444 312.5L191.667 313.056L192.306 315L192.556 316L192.694 318L192.306 320L191.972 321L191.167 323L190.139 325L189.528 326L187.917 327.917L186 329.583L184 330.917L183 331.444L181 332.361L180 332.806L178 333.528L177 333.75L176 333.917L174 334L172 334L171 334L169 333.917L168 333.75L167 333.528L165 332.75L164 332.222L163 331.75L161 330.611L159 329.417L157 328.528L155 328.333L153 328.861L152 329.25L150 330.222L149 330.778L147 331.778L146 332.222L145.056 332.75L144.056 333.167L143.5 333.5L142 334L142.778 334.722L143.306 334.75L144.111 334.944L145.028 334.972L147 335L149 335L152 335L172 335L235 335L250 335L253 335L254 335L256 335L258 334.917L260 334.583L261.944 333.972L262.5 333.806L264 333L263.222 332L262.694 331.778L261.889 331.194L260.972 330.778L260 330.222L259 329.75L257 328.528L256 327.75L255 326.917L253 325L251.083 323L250.25 322L249.472 321L248.25 319L247.778 318L247.222 317L246.778 316L246.25 315L245.861 314.056L245.278 312.5L245 311L244.278 311.778L244.25 312.306L244.056 313.111L244.028 314.028L244 316L244 317L244 319L244 332L243 333L238 333L237 332L237 311L237 303L237 301L236.972 299L236.917 298L236.611 296.056L236.25 294.5L236 293L234.5 293.25L232.944 293.694L231 294.389L230 294.806L228 295.611L226 296.389L224 297.194L223 297.611L221 298.333L220 298.667L219 299.028L218 299.389L217 299.806L215 300.611L213 301.389L211 302.25L210 302.75L208 303.611L206.056 304.361L205.056 304.833L204.5 305.028L203 306z"/>
<path style="fill:#5f2b08; stroke:none;" d="M236 293L237 294L236 293z"/>
<path style="fill:#884110; stroke:none;" d="M246 293L247 294L246 293z"/>
<path style="fill:#894110; stroke:none;" d="M300 293L301 294L300 293z"/>
<path style="fill:#7a3a0d; stroke:none;" d="M304 293L305 294L304 293z"/>
<path style="fill:#9d4c14; stroke:none;" d="M378 293L379 294L378 293z"/>
<path style="fill:#79390d; stroke:none;" d="M422 293L423 294L422 293z"/>
<path style="fill:#be5d1a; stroke:none;" d="M471 293L472 294L471 293z"/>
<path style="fill:#994913; stroke:none;" d="M493 293L494 294L493 293z"/>
<path style="fill:#b75919; stroke:none;" d="M505 293L506 294L505 293z"/>
<path style="fill:#9b4b13; stroke:none;" d="M525 293L526 294L525 293z"/>
<path style="fill:#b05617; stroke:none;" d="M537 293L538 294L537 293z"/>
<path style="fill:#ce651d; stroke:none;" d="M236.333 294.667L236.333 295L236.667 295.333L236.667 295L236.333 294.667z"/>
<path style="fill:#914511; stroke:none;" d="M252 294L253 295L252 294z"/>
<path style="fill:#a75116; stroke:none;" d="M294 294L295 295L294 294z"/>
<path style="fill:#ffffff; stroke:none;" d="M507 294L507.083 295.5L507.472 297.056L507.833 298L508.611 300L509.389 302L510.25 304L510.75 305L511.611 307L512.389 309L512.806 310L513.611 312L514.333 313.944L514.556 314.5L515 316L515.972 315.222L516.167 314.694L516.639 313.889L517.389 312L518.194 310L518.611 309L519.389 307L519.806 306L520.611 304L521.389 302L522.194 300L522.611 299L523.306 297.056L523.583 296.056L523.75 295.5L524 294L516 294L507 294z"/>
<path style="fill:#833e0f; stroke:none;" d="M245.333 295.667L245.333 296L245.667 296.333L245.667 296L245.333 295.667z"/>
<path style="fill:#853f0f; stroke:none;" d="M301.333 295.667L301.333 296.333L301.667 296.333L301.667 296L301.333 295.667z"/>
<path style="fill:#7c3a0d; stroke:none;" d="M303.333 295.667L303.333 296.333L303.667 296.333L303.667 296L303.333 295.667z"/>
<path style="fill:#cd651d; stroke:none;" d="M350.333 295.667L350.333 296.333L350.667 296.333L350.667 296L350.333 295.667z"/>
<path style="fill:#924611; stroke:none;" d="M356 295L357 296L356 295z"/>
<path style="fill:#8b4210; stroke:none;" d="M377 295L378 296L377 295z"/>
<path style="fill:#a34f15; stroke:none;" d="M423.333 295.667L423.333 296.333L423.667 296.333L423.667 296L423.333 295.667z"/>
<path style="fill:#964812; stroke:none;" d="M427 295L428 296L427 295z"/>
<path style="fill:#d4681e; stroke:none;" d="M243 296L243 332L243.722 331.222L243.75 330.694L243.944 329.889L243.972 328.972L244 327L244 326L244 323L244 318L244 316L244.083 314L244.222 313L244.528 311L244.556 310L244.361 308L244.083 306L244.028 305L244.083 303L244.361 301L244.528 300L244.472 298.111L243.972 296.778L243 296z"/>
<path style="fill:#652e09; stroke:none;" d="M251 296L252 297L251 296z"/>
<path style="fill:#833e0f; stroke:none;" d="M295 296L296 297L295 296z"/>
<path style="fill:#ca631c; stroke:none;" d="M309.333 296.667L309.333 297.333L309.667 297.333L309.667 297L309.333 296.667z"/>
<path style="fill:#5c2907; stroke:none;" d="M412 297L413 298L412 297z"/>
<path style="fill:#ffffff; stroke:none;" d="M424 297L424.583 299.056L424.917 300.944L424.972 301.944L425 304L425.722 303.222L425.75 302.694L425.944 301.889L425.972 300.028L425.722 298.333L425.139 297.361L424 297z"/>
<path style="fill:#2e1202; stroke:none;" d="M237 298L237 332L237.722 331.222L237.75 330.694L237.944 329.889L237.972 328.972L238 327L238 326L238 323L238 306L238 304L238 303L237.972 301.028L237.944 300.111L237.75 299.306L237.722 298.778L237 298z"/>
<path style="fill:#994913; stroke:none;" d="M302.333 298.667L302.333 299.333L302.667 299.333L302.667 298.667L302.333 298.667z"/>
<path style="fill:#9b4b13; stroke:none;" d="M351 298L351 301L351.694 300.25L351.694 299.194L351.694 298.75L351 298z"/>
<path style="fill:#b45818; stroke:none;" d="M357.333 298.667L357.333 299.333L357.667 299.333L357.667 298.667L357.333 298.667z"/>
<path style="fill:#b55818; stroke:none;" d="M376.333 298.667L376.333 299.333L376.667 299.333L376.667 298.667L376.333 298.667z"/>
<path style="fill:#ffffff; stroke:none;" d="M411 298L409.5 298.722L408.944 298.75L407.944 298.944L407 298.972L405 299.028L404 299.083L402 299.389L400 299.778L399 299.917L397 300.083L395 300.389L393 300.778L392 300.917L390 301.083L389 301.222L387 301.611L385 301.917L383 302.083L382 302.222L380.056 302.611L379.056 302.778L378.5 302.917L377 303L377 305.056L377 306.056L377.083 308L377.417 310L377.694 311L378.389 313L378.833 314L379.278 315L380.472 317L382.083 318.972L383.028 319.917L385 321.528L386 322.139L387 322.722L388 323.167L390 323.972L392 324.583L394 324.889L396 324.778L398 324.306L399 323.972L400 323.611L402 322.722L403 322.139L404 321.528L405.972 319.917L406.917 318.972L408.528 317L409.139 316L410.222 314L410.75 313L411.528 311L411.75 310L412.056 308L412.361 306L412.528 305L412.528 303L412.361 302L412.028 300.111L411.778 299.306L411.722 298.778L411 298z"/>
<path style="fill:#954812; stroke:none;" d="M296.333 299.667L296.333 300.333L296.667 300.333L296.667 300L296.333 299.667z"/>
<path style="fill:#944712; stroke:none;" d="M308.333 299.667L308.333 300.333L308.667 300.333L308.667 300L308.333 299.667z"/>
<path style="fill:#72350b; stroke:none;" d="M244 300L244 307L244.722 306.222L244.75 305.694L244.944 304.889L244.972 303.972L244.944 302.111L244.75 301.306L244.722 300.778L244 300z"/>
<path style="fill:#be5d1a; stroke:none;" d="M250 300L250 309L250.722 308.222L250.75 307.694L250.944 306.889L250.972 305.972L251 304L250.944 302.111L250.75 301.306L250.722 300.778L250 300z"/>
<path style="fill:#2e1202; stroke:none;" d="M302 300L302 308L302.722 307.222L302.75 306.694L302.944 305.889L302.972 304.972L303 304L302.944 302.111L302.75 301.306L302.722 300.778L302 300z"/>
<path style="fill:#6c320a; stroke:none;" d="M357 300L357 306L357.722 305.222L357.75 304.694L357.944 303.889L357.944 302.111L357.75 301.306L357.722 300.778L357 300z"/>
<path style="fill:#d4681f; stroke:none;" d="M296 301L296 307L296.722 306.222L296.75 305.694L296.944 304.889L296.944 303.111L296.75 302.306L296.722 301.778L296 301z"/>
<path style="fill:#f07724; stroke:none;" d="M202 306L202 331L202.722 330.222L202.75 329.694L202.944 328.889L202.972 327.972L203 327L203 326L203 324L203 313L203 311L203 310L202.972 309.028L202.944 308.111L202.75 307.306L202.722 306.778L202 306z"/>
<path style="fill:#6d320a; stroke:none;" d="M354.667 306.333L355 306.667L355.333 306.667L355 306.333L354.667 306.333z"/>
<path style="fill:#b45818; stroke:none;" d="M356 306L357 307L356 306z"/>
<path style="fill:#aa5316; stroke:none;" d="M244.333 307.667L244.333 308L244.667 308.333L244.667 308L244.333 307.667z"/>
<path style="fill:#994913; stroke:none;" d="M296 307L296 310L296.694 309.25L296.694 308.194L296.694 307.75L296 307z"/>
<path style="fill:#7e3b0e; stroke:none;" d="M308 307L308 310L308.694 309.25L308.694 308.194L308.694 307.75L308 307z"/>
<path style="fill:#ff7f27; stroke:none;" d="M309 307L309 308.5L309.083 310.056L309.472 312L310.25 314L310.75 314.944L311.167 315.944L311.5 316.5L312 318L313.5 317.556L314.056 317.333L316 316.694L317 316.389L319 315.861L320 315.639L322 315.139L323 314.861L324 314.639L325 314.361L326 314.139L327 313.861L328 313.639L329 313.361L331 312.861L332 312.639L333 312.361L334 312.139L336 311.639L337 311.361L338 311.139L339 310.861L341 310.389L342 310.194L344 309.806L345 309.611L347 309.139L348 308.861L349 308.639L350 308.389L350.944 308.222L352.5 308.028L354 308L353.222 307.278L352.694 307.25L351.889 307.056L350.972 307.028L350 307L348 307L347 307L345 307L340 307L309 307z"/>
<path style="fill:#964812; stroke:none;" d="M302 308L302 311L302.694 310.25L302.694 309.194L302.694 308.75L302 308z"/>
<path style="fill:#de6e21; stroke:none;" d="M195 309L195 332L195.722 331.222L195.75 330.694L195.944 329.889L195.972 328.972L196 328L196 327L196 325L196 318L196 316L196 315L196 313L195.972 312.028L195.944 311.111L195.75 310.306L195.722 309.778L195 309z"/>
<path style="fill:#471e04; stroke:none;" d="M190 311L191 312L190 311z"/>
<path style="fill:#be5d1a; stroke:none;" d="M251 311L252 312L251 311z"/>
<path style="fill:#ff7f27; stroke:none;" d="M302 311L301.722 312.5L301.139 314.056L300.75 315L299.778 317L299.25 318L298.861 318.944L298.278 320.5L298 322L299.5 321.556L300.056 321.333L302 320.694L302.944 320.417L304.5 320.083L306 320L305.722 318.5L305.139 316.944L304.75 316L304.25 315L303.417 313.111L303 312.306L302.806 311.778L302 311z"/>
<path style="fill:#be5d1a; stroke:none;" d="M191 312L192 313L191 312z"/>
<path style="fill:#bb5b1a; stroke:none;" d="M245.333 312.667L245.333 313L245.667 313.333L245.667 313L245.333 312.667z"/>
<path style="fill:#6d320a; stroke:none;" d="M251 312L252 313L251 312z"/>
<path style="fill:#8a4210; stroke:none;" d="M295 312L296 313L295 312z"/>
<path style="fill:#bc5c1a; stroke:none;" d="M301.333 312.667L301.333 313.333L301.667 313.333L301.667 312.667L301.333 312.667z"/>
<path style="fill:#b95a19; stroke:none;" d="M303.333 312.667L303.333 313.333L303.667 313.333L303.667 312.667L303.333 312.667z"/>
<path style="fill:#8c4310; stroke:none;" d="M309 312L310 313L309 312z"/>
<path style="fill:#683009; stroke:none;" d="M191 313L192 314L191 313z"/>
<path style="fill:#ff7f27; stroke:none;" d="M163 324L163.778 325.056L164.306 325.361L165.111 325.944L167 326.778L168 327.111L169 327.361L170 327.611L172 327.889L173 327.889L175 327.611L176 327.389L178 326.972L179 326.722L181 325.889L182.917 324.583L184.5 322.917L185.5 321L185.917 319L185.944 317.056L185.75 316.056L185.722 315.5L185 314L183.5 314.278L181.944 314.861L181 315.25L180 315.778L179 316.222L178 316.778L176 317.778L175 318.222L174 318.778L172 319.75L171 320.167L170 320.611L168 321.389L167 321.833L166.056 322.222L164.5 323L163 324z"/>
<path style="fill:#a55015; stroke:none;" d="M185 314L186 315L185 314z"/>
<path style="fill:#974913; stroke:none;" d="M252 314L253 315L252 314z"/>
<path style="fill:#ac5317; stroke:none;" d="M294 314L295 315L294 314z"/>
<path style="fill:#b95a19; stroke:none;" d="M310 314L311 315L310 314z"/>
<path style="fill:#be5d1a; stroke:none;" d="M192 315L192 320L192.722 319.222L192.75 318.694L192.917 317.917L192.75 316.306L192.722 315.778L192 315z"/>
<path style="fill:#833e0f; stroke:none;" d="M246 315L247 316L246 315z"/>
<path style="fill:#843f0f; stroke:none;" d="M300 315L301 316L300 315z"/>
<path style="fill:#803c0e; stroke:none;" d="M304 315L305 316L304 315z"/>
<path style="fill:#4d2205; stroke:none;" d="M310 315L311 316L310 315z"/>
<path style="fill:#884110; stroke:none;" d="M253 316L254 317L253 316z"/>
<path style="fill:#9f4d14; stroke:none;" d="M293 316L294 317L293 316z"/>
<path style="fill:#b55818; stroke:none;" d="M311 316L312 317L311 316z"/>
<path style="fill:#562706; stroke:none;" d="M186.333 317.667L186.333 318L186.667 318.333L186.667 317.667L186.333 317.667z"/>
<path style="fill:#6a310a; stroke:none;" d="M247 317L248 318L247 317z"/>
<path style="fill:#6c320a; stroke:none;" d="M299 317L300 318L299 317z"/>
<path style="fill:#662f09; stroke:none;" d="M305 317L306 318L305 317z"/>
<path style="fill:#5a2807; stroke:none;" d="M292 318L293 319L292 318z"/>
<path style="fill:#7f3c0e; stroke:none;" d="M248 319L249 320L248 319z"/>
<path style="fill:#7d3b0d; stroke:none;" d="M255 319L256 320L255 319z"/>
<path style="fill:#8f4411; stroke:none;" d="M291 319L292 320L291 319z"/>
<path style="fill:#813d0e; stroke:none;" d="M298 319L299 320L298 319z"/>
<path style="fill:#964812; stroke:none;" d="M256 320L257 321L256 320z"/>
<path style="fill:#a75116; stroke:none;" d="M290 320L291 321L290 320z"/>
<path style="fill:#994913; stroke:none;" d="M185 321L186 322L185 321z"/>
<path style="fill:#b75919; stroke:none;" d="M249 321L250 322L249 321z"/>
<path style="fill:#9f4d14; stroke:none;" d="M257 321L258 322L257 321z"/>
<path style="fill:#af5517; stroke:none;" d="M289 321L290 322L289 321z"/>
<path style="fill:#ba5b19; stroke:none;" d="M297 321L298 322L297 321z"/>
<path style="fill:#7d3b0d; stroke:none;" d="M191 322L192 323L191 322z"/>
<path style="fill:#833e0f; stroke:none;" d="M250 322L251 323L250 322z"/>
<path style="fill:#934612; stroke:none;" d="M258 322L259 323L258 322z"/>
<path style="fill:#a24e15; stroke:none;" d="M288 322L289 323L288 322z"/>
<path style="fill:#5a2807; stroke:none;" d="M251 323L252 324L251 323z"/>
<path style="fill:#6c320a; stroke:none;" d="M259 323L260 324L259 323z"/>
<path style="fill:#7a3a0d; stroke:none;" d="M287 323L288 324L287 323z"/>
<path style="fill:#562706; stroke:none;" d="M183 324L184 325L183 324z"/>
<path style="fill:#492004; stroke:none;" d="M190 324L191 325L190 324z"/>
<path style="fill:#451d04; stroke:none;" d="M252 324L253 325L252 324z"/>
<path style="fill:#bc5c1a; stroke:none;" d="M261 324L262 325L261 324z"/>
<path style="fill:#a24e15; stroke:none;" d="M164 325L165 326L164 325z"/>
<path style="fill:#bd5c1a; stroke:none;" d="M181 325L182 326L181 325z"/>
<path style="fill:#683009; stroke:none;" d="M262 325L263 326L262 325z"/>
<path style="fill:#72350b; stroke:none;" d="M284 325L285 326L284 325z"/>
<path style="fill:#451d04; stroke:none;" d="M165 326L166 327L165 326z"/>
<path style="fill:#552606; stroke:none;" d="M180 326L181 327L180 326z"/>
<path style="fill:#884110; stroke:none;" d="M189 326L190 327L189 326z"/>
<path style="fill:#552606; stroke:none;" d="M254 326L255 327L254 326z"/>
<path style="fill:#622d08; stroke:none;" d="M264 326L265 327L264 326z"/>
<path style="fill:#6a310a; stroke:none;" d="M282 326L283 327L282 326z"/>
<path style="fill:#bf5d1a; stroke:none;" d="M156 327L157 328L156 327z"/>
<path style="fill:#c5611c; stroke:none;" d="M168.667 327.333L169 327.667L169.333 327.667L169 327.333L168.667 327.333z"/>
<path style="fill:#be5d1a; stroke:none;" d="M175 327L175.722 327.722L176.25 327.75L178 328L177.278 327.278L176.75 327.25L175 327z"/>
<path style="fill:#5f2b08; stroke:none;" d="M188 327L189 328L188 327z"/>
<path style="fill:#78380c; stroke:none;" d="M255 327L256 328L255 327z"/>
<path style="fill:#af5517; stroke:none;" d="M267.667 327.333L268 327.667L268.333 327.667L268 327.333L267.667 327.333z"/>
<path style="fill:#d1671e; stroke:none;" d="M276 327L276.722 327.722L277.25 327.75L279 328L278.278 327.278L277.75 327.25L276 327z"/>
<path style="fill:#77380c; stroke:none;" d="M279 327L280 328L279 327z"/>
<path style="fill:#bd5c1a; stroke:none;" d="M157 328L158 329L157 328z"/>
<path style="fill:#582807; stroke:none;" d="M187 328L188 329L187 328z"/>
<path style="fill:#aa5316; stroke:none;" d="M256 328L257 329L256 328z"/>
<path style="fill:#79390d; stroke:none;" d="M186 329L187 330L186 329z"/>
<path style="fill:#693009; stroke:none;" d="M258 329L259 330L258 329z"/>
<path style="fill:#75360c; stroke:none;" d="M160 330L161 331L160 330z"/>
<path style="fill:#4d2205; stroke:none;" d="M260 330L261 331L260 330z"/>
<path style="fill:#693009; stroke:none;" d="M162 331L163 332L162 331z"/>
<path style="fill:#9f4d14; stroke:none;" d="M183 331L184 332L183 331z"/>
<path style="fill:#602c08; stroke:none;" d="M262 331L263 332L262 331z"/>
<path style="fill:#9c4b14; stroke:none;" d="M164 332L165 333L164 332z"/>
<path style="fill:#71340b; stroke:none;" d="M180 332L181 333L180 332z"/>
<path style="fill:#af5517; stroke:none;" d="M196 332L197 333L196 332z"/>
<path style="fill:#532506; stroke:none;" d="M200 332L201 333L200 332M238 332L239 333L238 332z"/>
<path style="fill:#b25618; stroke:none;" d="M242 332L243 333L242 332z"/>
<path style="fill:#a44f15; stroke:none;" d="M264 332L265 333L264 332z"/>
<path style="fill:#552606; stroke:none;" d="M265 332L266 333L265 332z"/>
<path style="fill:#c15f1b; stroke:none;" d="M166 333L166.722 333.722L167.25 333.75L169 334L168.278 333.278L167.75 333.25L166 333z"/>
<path style="fill:#622d08; stroke:none;" d="M169 333L169.722 333.722L170.25 333.75L172 334L171.278 333.278L170.75 333.25L169 333z"/>
<path style="fill:#2a1002; stroke:none;" d="M172 333L172.722 333.722L173.25 333.75L175 334L174.278 333.278L173.75 333.25L172 333z"/>
<path style="fill:#8c4310; stroke:none;" d="M175.667 333.333L175.667 333.667L176.333 333.667L176.333 333.333L175.667 333.333z"/>
<path style="fill:#cf661e; stroke:none;" d="M177.667 333.333L177.667 333.667L178.333 333.667L178 333.333L177.667 333.333z"/>
</svg>
